<svg width="40" height="40" viewBox="0 0 40 40" fill="none" xmlns="http://www.w3.org/2000/svg">
<path fill-rule="evenodd" clip-rule="evenodd" d="M40 11.0227V34.2927C40 35.592 39.398 36.8381 38.3263 37.7568C37.2547 38.6755 35.8012 39.1917 34.2857 39.1917V36.7422C35.0435 36.7422 35.7702 36.4841 36.306 36.0248C36.8418 35.5654 37.1429 34.9424 37.1429 34.2927V11.0227H31.4286C30.2919 11.0227 29.2018 10.6356 28.3981 9.9465C27.5944 9.25745 27.1429 8.3229 27.1429 7.34844V2.44948H11.4286C10.6708 2.44948 9.94409 2.70755 9.40827 3.16692C8.87245 3.62628 8.57143 4.24932 8.57143 4.89896V26.9443H5.71429V4.89896C5.71429 3.59967 6.31632 2.35361 7.38796 1.43487C8.4596 0.516139 9.91305 0 11.4286 0L27.1429 0L40 11.0227ZM0 36.3527C0.0163562 36.7387 0.126742 37.1174 0.324061 37.4646C0.521379 37.8118 0.801262 38.1197 1.14571 38.3686C1.51524 38.6332 1.97048 38.8389 2.51143 38.9859C3.32286 39.2064 3.68571 39.2088 4.41143 39.2088C5.37714 39.2088 6.19429 39.0798 6.86286 38.8218C7.53905 38.5622 8.05333 38.2029 8.40571 37.744C8.76602 37.2658 8.95203 36.7064 8.94 36.1372C8.94 35.5885 8.81143 35.1313 8.55429 34.7655C8.29288 34.3984 7.92335 34.0968 7.48286 33.891C6.97816 33.6506 6.43389 33.4772 5.86857 33.3766L4.09429 33.0239C3.67592 32.9559 3.28057 32.8086 2.93714 32.5928C2.80731 32.5063 2.70278 32.3951 2.63185 32.268C2.56093 32.1409 2.52556 32.0013 2.52857 31.8604C2.52857 31.4783 2.70381 31.1647 3.05429 30.9198C3.41048 30.6716 3.89905 30.5475 4.52 30.5475C4.92762 30.5475 5.28 30.603 5.57714 30.714C5.85108 30.8077 6.09218 30.9604 6.27714 31.1574C6.45299 31.3392 6.57109 31.5569 6.62 31.7893H8.76286C8.72684 31.291 8.52999 30.811 8.19429 30.4029C7.83425 29.9624 7.34012 29.615 6.76571 29.3987C6.06449 29.1338 5.30308 29.0066 4.53714 29.0263C3.69905 29.0263 2.96 29.1488 2.32 29.3938C1.6781 29.6371 1.17524 29.9808 0.811429 30.425C0.449524 30.8708 0.268571 31.3925 0.268571 31.9902C0.268571 32.4834 0.385714 32.9112 0.62 33.2737C0.854286 33.6363 1.18857 33.9359 1.62286 34.1727C2.05905 34.4062 2.57333 34.5801 3.16571 34.6944L4.93143 35.0472C5.5219 35.1664 5.96191 35.3239 6.25143 35.5199C6.39338 35.6128 6.50719 35.7337 6.58327 35.8722C6.65935 36.0108 6.69546 36.163 6.68857 36.316C6.68857 36.5854 6.60762 36.8222 6.44571 37.0263C6.26126 37.2426 6.00699 37.4078 5.71429 37.5015C5.39619 37.6158 5.00286 37.673 4.53429 37.673C4.19905 37.673 3.89429 37.6403 3.62 37.575C3.36671 37.5167 3.12702 37.4214 2.91143 37.2933C2.72145 37.1876 2.55878 37.0495 2.43347 36.8877C2.30816 36.726 2.22286 36.5439 2.18286 36.3527H0ZM19.6514 40L18.2029 38.1898C18.7057 37.793 19.0876 37.3031 19.3486 36.7201C19.6114 36.1355 19.7429 35.4774 19.7429 34.7459V33.5187C19.7429 32.6107 19.5448 31.8212 19.1486 31.15C18.7787 30.5001 18.1933 29.9581 17.4657 29.5922C16.7362 29.2247 15.8629 29.041 14.8457 29.041C13.8419 29.041 12.9714 29.2247 12.2343 29.5922C11.5029 29.9563 10.939 30.4756 10.5429 31.15C10.1347 31.8896 9.93409 32.7008 9.95714 33.5187V34.7434C9.95714 35.6481 10.1524 36.436 10.5429 37.1072C10.939 37.7767 11.5029 38.296 12.2343 38.665C13.0332 39.0415 13.9344 39.2292 14.8457 39.2088C15.4292 39.2111 16.0089 39.1283 16.56 38.9639L17.4 39.9976L19.6514 40ZM12.1771 34.7826V33.504C12.1771 32.9014 12.2857 32.387 12.5029 31.9608C12.6953 31.5654 13.018 31.2266 13.4314 30.9859C13.8545 30.7578 14.346 30.6403 14.8457 30.6479C15.3943 30.6479 15.8657 30.7606 16.26 30.9859C16.6735 31.2266 16.9961 31.5654 17.1886 31.9608C17.4076 32.387 17.5171 32.9014 17.5171 33.504V34.7826C17.5171 35.1843 17.4667 35.5477 17.3657 35.8726C17.2648 36.1927 17.1171 36.4703 16.9229 36.7055L16.62 36.3625L16.32 36.0024H14.2257L15.5143 37.5946C15.2876 37.6767 15.0431 37.7159 14.7971 37.7097C14.3018 37.7112 13.8173 37.5859 13.4057 37.3497C12.9949 37.1033 12.6772 36.7593 12.4914 36.3601C12.2687 35.8566 12.162 35.3209 12.1771 34.7826ZM23.5657 37.3717H28.4114V39.0227H21.3057V29.2272H23.5629L23.5657 37.3717Z" fill="#023047"/>
</svg>
