<svg width="306" height="54" viewBox="0 0 306 54" fill="none" xmlns="http://www.w3.org/2000/svg">
<path d="M24.9263 44.9766C24.6196 44.9921 24.311 44.999 24.0005 44.999V45C24.311 45 24.6196 44.9921 24.9263 44.9766ZM26.7417 44.793C26.5926 44.8158 26.4428 44.8364 26.2925 44.8555C26.4428 44.8364 26.5926 44.8158 26.7417 44.793ZM29.0542 44.2793C28.8855 44.3286 28.7161 44.3765 28.5454 44.4209C28.7161 44.3765 28.8855 44.3286 29.0542 44.2793ZM37.3237 39.1025C37.189 39.2508 37.0512 39.3963 36.9116 39.54C37.0512 39.3963 37.189 39.2508 37.3237 39.1025ZM30.4058 27.2549C30.3407 27.2549 30.2039 27.2809 29.9956 27.333C29.8915 27.359 29.784 27.39 29.6733 27.4258L28.9897 27.6699C28.8791 27.7057 28.7716 27.7367 28.6675 27.7627C28.4592 27.8148 28.3029 27.8669 28.1987 27.9189C28.1987 28.01 28.1466 28.0687 28.0425 28.0947C27.9383 28.1208 27.8797 28.1664 27.8667 28.2314L27.9058 28.3877C27.8667 28.4007 27.7755 28.4463 27.6323 28.5244C27.4891 28.6025 27.3328 28.7002 27.1636 28.8174C26.9943 28.9346 26.8445 29.0387 26.7144 29.1299C26.5842 29.221 26.493 29.2927 26.4409 29.3447C26.2066 29.3447 25.8875 29.4229 25.4839 29.5791C25.0803 29.7353 24.6375 29.9307 24.1558 30.165C23.674 30.3994 23.1987 30.6794 22.73 31.0049C22.2613 31.3304 21.8185 31.656 21.4019 31.9814C20.9853 32.3069 20.6661 32.6325 20.4448 32.958C20.2236 33.2834 20.0933 33.57 20.0542 33.8174L20.5259 34.3154C21.6502 34.7504 22.8108 35.0097 23.9995 35.0098C27.4457 35.0098 30.6654 32.852 33.4019 30.4473C33.3993 30.4443 33.3966 30.4415 33.394 30.4385C33.2509 30.2693 33.1401 30.0868 33.062 29.8916C32.9839 29.6964 32.9383 29.5009 32.9253 29.3057C32.9253 29.1755 32.9514 29.0387 33.0034 28.8955C33.0555 28.7523 33.1011 28.6155 33.1401 28.4854L32.73 28.583C32.5087 28.0753 32.209 27.7302 31.8315 27.5479C31.454 27.3656 30.9786 27.2679 30.4058 27.2549ZM24.0005 9C14.0659 9 6.01074 17.049 6.00049 26.9814C6.00547 22.0954 7.96984 23.9879 11.1528 27.1582C11.3738 27.1183 11.6003 27.067 11.8315 27.001C12.196 26.8969 12.5217 26.7404 12.8081 26.5322L12.6909 26.4346C12.8601 26.4736 13.0296 26.5258 13.1987 26.5908C13.3679 26.6559 13.5308 26.7276 13.687 26.8057C13.8432 26.8837 14.0127 26.9359 14.1948 26.9619C14.377 26.9879 14.553 27.014 14.7222 27.04L15.0347 27.001L14.9761 26.8643C15.1583 26.9163 15.3538 26.9815 15.562 27.0596C15.7702 27.1377 15.9723 27.1767 16.1675 27.1768C16.2976 27.1768 16.4866 27.1311 16.7339 27.04C16.9812 26.9489 17.2288 26.8382 17.4761 26.708C17.7234 26.5778 17.9449 26.4345 18.1401 26.2783C18.3354 26.1221 18.433 25.9723 18.4331 25.8291L18.394 25.7705C18.4591 25.6924 18.5439 25.6207 18.6479 25.5557C18.752 25.4906 18.8498 25.4254 18.9409 25.3604C19.032 25.2953 19.1168 25.2236 19.1948 25.1455C19.2729 25.0674 19.3055 24.9762 19.2925 24.8721L19.0776 24.6963L19.5269 24.6377L19.6831 24.0518C19.657 24.1167 19.5984 24.1429 19.5073 24.1299C19.4163 24.1169 19.3445 24.0908 19.2925 24.0518L19.9956 23.6807L19.5073 22.4307C19.6896 21.7536 19.7352 21.2327 19.644 20.8682C19.5529 20.5036 19.3771 20.2041 19.1167 19.9697C18.8563 19.7354 18.5698 19.501 18.2573 19.2666C17.9449 19.0322 17.6258 18.7132 17.3003 18.3096L17.3589 18.0752L16.0698 16.5127L15.7769 16.4736C15.4124 16.4736 15.002 16.4606 14.5464 16.4346C14.0908 16.4085 13.6283 16.3629 13.1597 16.2979C12.6911 16.2328 12.2285 16.1676 11.7729 16.1025C11.3174 16.0374 10.9004 15.9528 10.5229 15.8486C10.9395 15.3539 11.3759 14.885 11.8315 14.4424C12.2872 13.9998 12.7757 13.5764 13.2964 13.1729C13.4395 13.2249 13.6155 13.2966 13.8237 13.3877C14.032 13.4788 14.2405 13.5961 14.4487 13.7393C14.657 13.8825 14.8198 14.0388 14.937 14.208C15.0542 14.3773 15.1258 14.5531 15.1519 14.7354L15.0347 15.1064C15.269 15.4839 15.5296 15.7184 15.8159 15.8096C16.1023 15.9007 16.3955 15.9528 16.6948 15.9658C16.9942 15.9788 17.3069 15.9788 17.6323 15.9658C17.9578 15.9528 18.2704 16.0114 18.5698 16.1416L18.8823 15.4775L18.5894 14.3447L18.9214 13.8564L15.5425 12.8018C15.6857 12.4373 15.9202 12.1637 16.2456 11.9814C16.571 11.7992 16.9293 11.708 17.3198 11.708V11.5127L16.2261 11.3369C17.4369 10.738 18.6936 10.2822 19.9956 9.96973C21.2976 9.65723 22.6324 9.50098 23.9995 9.50098C25.1323 9.50098 26.2522 9.61166 27.3589 9.83301C28.4656 10.0544 29.5334 10.3734 30.562 10.79C31.5906 11.2067 32.5868 11.7276 33.5503 12.3525C34.5137 12.9775 35.3928 13.6807 36.187 14.4619C35.8486 14.4619 35.588 14.5466 35.4058 14.7158C35.2235 14.8851 35.0542 15.0739 34.8979 15.2822C34.7417 15.4905 34.5789 15.6794 34.4097 15.8486C34.2404 16.0179 34.0124 16.109 33.7261 16.1221L33.4136 15.8877L33.4526 15.458L32.8081 14.54L33.3159 13.0947C33.2508 13.0557 33.1531 12.9905 33.0229 12.8994C32.8928 12.8083 32.782 12.7628 32.6909 12.7627C32.3004 12.7627 32.0008 12.7822 31.7925 12.8213C31.5842 12.8603 31.4018 12.932 31.2456 13.0361C31.0894 13.1403 30.9526 13.29 30.8354 13.4854C30.7183 13.6807 30.536 13.9281 30.2886 14.2275L29.5854 13.6807C29.4553 13.7327 29.2469 13.8174 28.9604 13.9346C28.674 14.0518 28.381 14.195 28.0815 14.3643C27.7821 14.5335 27.5281 14.7093 27.3198 14.8916C27.1115 15.0739 27.0008 15.2432 26.9878 15.3994C26.9878 15.5947 27.0594 15.751 27.2026 15.8682C27.3459 15.9853 27.5347 16.083 27.769 16.1611C28.0034 16.2392 28.2443 16.2979 28.4917 16.3369C28.7391 16.376 28.9865 16.4281 29.2339 16.4932C29.4812 16.5583 29.6701 16.6234 29.8003 16.6885C29.9304 16.7536 30.0086 16.8643 30.0347 17.0205L28.9019 17.3916C29.1622 17.6129 29.4423 17.8148 29.7417 17.9971C30.0411 18.1793 30.3537 18.3487 30.6792 18.5049L30.6011 18.8369L32.3979 19.54V20.0869L32.5347 20.1455L32.437 19.4619L32.5151 19.4424C32.6061 19.4424 32.6584 19.462 32.6714 19.501C32.6844 19.54 32.6909 19.5857 32.6909 19.6377C32.6909 19.6897 32.6779 19.7419 32.6519 19.7939C32.6258 19.846 32.6193 19.8851 32.6323 19.9111L32.8862 19.7744L32.8472 19.8525C32.8471 19.8916 32.8276 19.9503 32.7886 20.0283C32.7495 20.1064 32.6974 20.1781 32.6323 20.2432C32.5672 20.3083 32.5151 20.3734 32.4761 20.4385C32.4372 20.5032 32.411 20.5358 32.3979 20.5361C32.398 20.5752 32.4241 20.6143 32.4761 20.6533C32.5281 20.6923 32.5934 20.7184 32.6714 20.7314C32.7494 20.7445 32.8016 20.764 32.8276 20.79C32.8534 20.8159 32.8534 20.8224 32.8276 20.8096C32.6454 20.8096 32.6063 20.8226 32.7104 20.8486C32.8146 20.8747 32.9775 20.9399 33.1987 21.0439C33.42 21.1481 33.622 21.2979 33.8042 21.4932C33.9864 21.6885 34.0907 21.9751 34.1167 22.3525C34.1167 22.5738 34.1102 22.7888 34.0972 22.9971C34.0842 23.2054 34.0907 23.4203 34.1167 23.6416C34.299 23.1468 34.5724 22.7692 34.937 22.5088C35.3016 22.2484 35.7444 22.1182 36.2651 22.1182L37.105 22.1963L36.6948 22.4697C36.9161 22.4437 37.1442 22.4176 37.3784 22.3916C37.6127 22.3656 37.8538 22.3591 38.1011 22.3721C38.3483 22.3851 38.5699 22.4372 38.7651 22.5283C38.9603 22.6195 39.1559 22.7563 39.3511 22.9385L39.4683 23.8174C39.4682 24.2339 39.377 24.5726 39.1948 24.833C39.0126 25.0934 38.6933 25.2301 38.2378 25.2432C37.8473 25.2432 37.4629 25.1845 37.0854 25.0674C36.708 24.9502 36.3366 24.8134 35.9722 24.6572C36.0893 24.9436 36.2196 25.2172 36.3628 25.4775C36.5059 25.7379 36.6102 26.0245 36.6753 26.3369L36.4214 26.4541C36.109 26.2458 35.8224 26.2133 35.562 26.3564C35.3016 26.4997 35.0477 26.708 34.8003 26.9814C34.5529 27.2549 34.299 27.5349 34.0386 27.8213C33.7782 28.1077 33.4981 28.3161 33.1987 28.4463L33.8628 28.7979L35.4253 27.9189C35.4123 27.945 35.3992 28.0036 35.3862 28.0947C35.3732 28.1858 35.3797 28.2054 35.4058 28.1533L36.1089 26.9619C36.4514 26.9512 36.8112 26.9034 37.189 26.8223C40.1713 23.8622 41.9947 22.2718 41.9995 26.9814C41.9893 17.0492 33.9348 9.00032 24.0005 9ZM31.6753 25.126C31.1415 25.126 30.6531 25.2171 30.2104 25.3994C30.3927 25.4645 30.5751 25.5166 30.7573 25.5557C30.9396 25.5947 31.1285 25.6208 31.3237 25.6338C31.5841 25.6338 31.8186 25.6077 32.0269 25.5557C31.9618 25.4516 31.8966 25.3864 31.8315 25.3604C31.7665 25.3343 31.7143 25.2561 31.6753 25.126ZM34.312 24.2471C34.1428 24.2471 33.9539 24.2731 33.7456 24.3252C33.5373 24.3773 33.3289 24.4489 33.1206 24.54C32.9123 24.6312 32.7039 24.7158 32.4956 24.7939C32.2873 24.8721 32.0984 24.9502 31.9292 25.0283L32.2417 25.0674C32.3458 25.0804 32.4566 25.0869 32.5737 25.0869C32.795 25.0869 32.997 25.0543 33.1792 24.9893C33.3614 24.9242 33.5308 24.8395 33.687 24.7354C33.8432 24.6312 33.9996 24.553 34.1558 24.501C34.3119 24.4489 34.4553 24.4098 34.5854 24.3838C34.7155 24.3838 34.8329 24.4099 34.937 24.4619C35.0411 24.514 35.1454 24.5727 35.2495 24.6377C35.2495 24.5856 35.2951 24.5596 35.3862 24.5596C35.2951 24.4685 35.1256 24.3968 34.8784 24.3447C34.6312 24.2927 34.4422 24.2601 34.312 24.2471ZM10.23 16.2197C10.256 16.3368 10.2886 16.4215 10.3276 16.4736C10.3667 16.5257 10.3927 16.6429 10.4058 16.8252C10.4057 16.9423 10.3602 17.0531 10.269 17.1572C10.178 17.2612 10.0614 17.3657 9.91846 17.4697C9.77536 17.5738 9.63187 17.652 9.48877 17.7041C9.34571 17.7561 9.22176 17.8018 9.11768 17.8408C9.29993 17.5544 9.4823 17.2809 9.66455 17.0205C9.84673 16.7602 10.0348 16.493 10.23 16.2197ZM10.4644 15.9268C10.4644 16.0307 10.484 16.1025 10.5229 16.1416H10.4058C10.3539 16.1416 10.3145 16.1482 10.2886 16.1611L10.4644 15.9268Z" fill="white"/>
<path d="M7.28662 24.228C7.11754 24.1751 7.02083 24.1869 6.96533 24.2085C6.91334 24.2288 6.83398 24.2827 6.74756 24.4487C6.56019 24.8086 6.43018 25.5216 6.43018 26.7603C6.43024 36.4638 14.2963 44.3304 23.9995 44.3306C33.7029 44.3306 41.5698 36.4639 41.5698 26.7603C41.5698 25.5217 41.4398 24.8086 41.2524 24.4487C41.1659 24.2824 41.0857 24.2288 41.0337 24.2085C40.9781 24.187 40.8821 24.1753 40.7134 24.228C40.3533 24.3407 39.856 24.6826 39.2085 25.2495C38.5743 25.8048 37.8482 26.5279 37.0308 27.3423C35.4063 28.9607 33.4426 30.9196 31.2554 32.4712C29.0697 34.0216 26.6132 35.2007 23.9995 35.2007C21.3859 35.2006 18.9302 34.0216 16.7446 32.4712C14.5572 30.9195 12.5928 28.9608 10.9683 27.3423C10.1509 26.528 9.42571 25.8048 8.7915 25.2495C8.14413 24.6827 7.64668 24.3407 7.28662 24.228Z" stroke="white" stroke-width="0.86"/>
<path d="M32.6112 38.915L29.7253 36.7347L28.8477 37.2956L31.2451 39.1412L29.1915 40.7425L29.6891 41.3215L32.6112 38.915ZM22.8222 35.9114L25.2287 42.2624L26.4048 42L23.9802 35.5405L22.8222 35.9114ZM20.1937 40.7425L18.14 39.1412L20.5375 37.2956L19.6599 36.7347L16.7739 38.915L19.6961 41.3215L20.1937 40.7425Z" fill="white"/>
<path d="M70.8495 19.5L69.0495 22.1C68.5495 21.9333 67.9662 21.7333 67.2995 21.5C66.6328 21.2333 66.1162 21.05 65.7495 20.95C65.3828 20.8167 64.9828 20.6833 64.5495 20.55C64.1162 20.4167 63.7495 20.3333 63.4495 20.3C63.1828 20.2333 62.9328 20.2 62.6995 20.2C60.5328 20.3 58.6995 21.7 57.1995 24.4C55.7662 27 55.2162 29.6167 55.5495 32.25C55.8495 34.8833 57.0162 36.35 59.0495 36.65C61.4162 36.9833 64.5828 35.6167 68.5495 32.55L69.4995 33.65C70.1662 34.3833 70.8162 35.1333 71.4495 35.9L72.3995 37C71.0995 37.9667 69.9495 38.75 68.9495 39.35C67.9828 39.95 66.9828 40.4333 65.9495 40.8C64.9162 41.2 63.8995 41.3833 62.8995 41.35C61.9328 41.35 60.9328 41.15 59.8995 40.75C57.0328 39.65 54.3328 37.7167 51.7995 34.95C50.2995 33.2833 49.4662 31.3167 49.2995 29.05C49.1662 26.75 49.5662 24.6167 50.4995 22.65C51.4662 20.6833 52.8828 19.0167 54.7495 17.65C56.6162 16.25 58.6495 15.55 60.8495 15.55C61.8828 15.55 65.2162 16.8667 70.8495 19.5ZM92.8073 21.15C90.6073 19.65 88.324 19.8833 85.9573 21.85C83.9907 23.5167 82.674 25.7333 82.0073 28.5C81.274 31.6667 81.8407 34.05 83.7073 35.65C83.9407 35.85 84.1907 36.0333 84.4573 36.2C85.7907 36.9333 87.1573 37.1 88.5573 36.7C89.9907 36.3 91.224 35.4167 92.2573 34.05C93.324 32.6833 94.1573 31.2333 94.7573 29.7C95.3573 28.1333 95.5073 26.55 95.2073 24.95C94.9073 23.3167 94.1073 22.05 92.8073 21.15ZM97.8073 21.55C98.774 22.4167 99.524 23.4667 100.057 24.7C100.591 25.9 100.891 27.1333 100.957 28.4C101.057 29.6667 100.941 30.95 100.607 32.25C100.307 33.55 99.8407 34.7667 99.2073 35.9C98.574 37.0333 97.774 38.05 96.8073 38.95C95.874 39.8167 94.8407 40.4667 93.7073 40.9C92.574 41.3667 91.3073 41.55 89.9073 41.45C88.5407 41.35 87.1407 40.9167 85.7073 40.15C83.8407 39.15 82.0073 37.8833 80.2073 36.35C78.774 35.1167 77.7073 33.7333 77.0073 32.2C76.3073 30.6333 75.974 29.1167 76.0073 27.65C76.074 26.1833 76.3573 24.7167 76.8573 23.25C77.3907 21.7833 78.1407 20.5167 79.1073 19.45C80.1073 18.3833 81.1907 17.4833 82.3573 16.75C83.524 15.9833 84.774 15.5833 86.1073 15.55C87.474 15.5167 88.7907 15.8 90.0573 16.4C93.2907 18.1 95.874 19.8167 97.8073 21.55ZM113.5 37.45C116.133 38.7833 119.316 38.1333 123.05 35.5V21.45C122.083 20.8833 120.733 20.5 119 20.3C117.633 20.1667 116.3 20.8667 115 22.4C113.7 23.9 112.716 25.65 112.05 27.65C111.383 29.65 111.133 31.6333 111.3 33.6C111.5 35.5333 112.233 36.8167 113.5 37.45ZM123.05 4.5L129.3 5.9C129.5 28.4 129.5 39.75 129.3 39.95C129.133 39.9833 128.266 40.1667 126.7 40.5C125.166 40.8667 124.183 41.0833 123.75 41.15C123.316 41.2167 122.416 41.3167 121.05 41.45C119.716 41.5833 118.65 41.5833 117.85 41.45C117.083 41.3167 116.116 41.0833 114.95 40.75C113.783 40.45 112.666 40 111.6 39.4C109.7 38.3667 108.233 37.1 107.2 35.6C106.166 34.1 105.616 32.5667 105.55 31C105.483 29.4333 105.666 27.85 106.1 26.25C106.533 24.6167 107.216 23.1333 108.15 21.8C109.116 20.4333 110.133 19.2333 111.2 18.2C112.3 17.1667 113.45 16.4333 114.65 16C115.85 15.5333 116.916 15.45 117.85 15.75C118.283 15.8833 118.733 16.0833 119.2 16.35C119.7 16.5833 120.1 16.8 120.4 17C120.733 17.2 121.183 17.5 121.75 17.9C122.35 18.3 122.783 18.5833 123.05 18.75V4.5ZM140.845 30.05L152.195 22.3C149.795 20.7667 147.745 20.2 146.045 20.6C144.379 21 143.095 22.05 142.195 23.75C141.295 25.4167 140.845 27.5167 140.845 30.05ZM141.995 34.85C142.929 35.9833 143.979 36.6833 145.145 36.95C146.312 37.2167 147.529 37.0667 148.795 36.5C150.095 35.9 151.179 35.3167 152.045 34.75C152.912 34.15 153.929 33.3667 155.095 32.4L156.095 33.4C156.729 34.1 157.362 34.8 157.995 35.5L158.995 36.5C156.095 38.6333 153.645 40.05 151.645 40.75C149.645 41.4833 147.662 41.4833 145.695 40.75C142.829 39.65 140.129 37.7167 137.595 34.95C136.095 33.2833 135.229 31.3167 134.995 29.05C134.762 26.75 135.045 24.6167 135.845 22.65C136.679 20.6833 137.945 19.0167 139.645 17.65C141.379 16.25 143.262 15.55 145.295 15.55C146.629 15.55 148.595 16.4167 151.195 18.15C153.829 19.85 156.012 21.5167 157.745 23.15C157.712 23.25 156.379 24.2833 153.745 26.25C151.145 28.1833 148.529 30.1 145.895 32L141.995 34.85ZM166.882 17.5L173.132 32.65L178.882 16.1L185.132 17.5L191.382 32.65L197.132 16.1L203.382 17.5L195.082 41.45H195.032L188.782 40.05L182.532 25L176.832 41.45H176.782L170.582 40.05H170.532L160.632 16.1L166.882 17.5ZM222.739 21.15C220.539 19.65 218.256 19.8833 215.889 21.85C213.922 23.5167 212.606 25.7333 211.939 28.5C211.206 31.6667 211.772 34.05 213.639 35.65C213.872 35.85 214.122 36.0333 214.389 36.2C215.722 36.9333 217.089 37.1 218.489 36.7C219.922 36.3 221.156 35.4167 222.189 34.05C223.256 32.6833 224.089 31.2333 224.689 29.7C225.289 28.1333 225.439 26.55 225.139 24.95C224.839 23.3167 224.039 22.05 222.739 21.15ZM227.739 21.55C228.706 22.4167 229.456 23.4667 229.989 24.7C230.522 25.9 230.822 27.1333 230.889 28.4C230.989 29.6667 230.872 30.95 230.539 32.25C230.239 33.55 229.772 34.7667 229.139 35.9C228.506 37.0333 227.706 38.05 226.739 38.95C225.806 39.8167 224.772 40.4667 223.639 40.9C222.506 41.3667 221.239 41.55 219.839 41.45C218.472 41.35 217.072 40.9167 215.639 40.15C213.772 39.15 211.939 37.8833 210.139 36.35C208.706 35.1167 207.639 33.7333 206.939 32.2C206.239 30.6333 205.906 29.1167 205.939 27.65C206.006 26.1833 206.289 24.7167 206.789 23.25C207.322 21.7833 208.072 20.5167 209.039 19.45C210.039 18.3833 211.122 17.4833 212.289 16.75C213.456 15.9833 214.706 15.5833 216.039 15.55C217.406 15.5167 218.722 15.8 219.989 16.4C223.222 18.1 225.806 19.8167 227.739 21.55ZM242.631 17.5V21.2C245.064 17.3667 247.131 15.45 248.831 15.45C249.664 15.45 251.064 15.8833 253.031 16.75C254.998 17.5833 256.648 18.45 257.981 19.35L254.531 24.35C252.464 22.8167 250.664 21.9833 249.131 21.85C247.631 21.6833 246.431 21.9833 245.531 22.75C244.631 23.4833 243.664 24.6833 242.631 26.35V41.45L236.381 40.05V16.1L242.631 17.5ZM267.239 5.9V41.45L260.989 40.05V4.5L267.239 5.9ZM280.15 37.45C282.783 38.7833 285.967 38.1333 289.7 35.5V21.45C288.733 20.8833 287.383 20.5 285.65 20.3C284.283 20.1667 282.95 20.8667 281.65 22.4C280.35 23.9 279.367 25.65 278.7 27.65C278.033 29.65 277.783 31.6333 277.95 33.6C278.15 35.5333 278.883 36.8167 280.15 37.45ZM289.7 4.5L295.95 5.9C296.15 28.4 296.15 39.75 295.95 39.95C295.783 39.9833 294.917 40.1667 293.35 40.5C291.817 40.8667 290.833 41.0833 290.4 41.15C289.967 41.2167 289.067 41.3167 287.7 41.45C286.367 41.5833 285.3 41.5833 284.5 41.45C283.733 41.3167 282.767 41.0833 281.6 40.75C280.433 40.45 279.317 40 278.25 39.4C276.35 38.3667 274.883 37.1 273.85 35.6C272.817 34.1 272.267 32.5667 272.2 31C272.133 29.4333 272.317 27.85 272.75 26.25C273.183 24.6167 273.867 23.1333 274.8 21.8C275.767 20.4333 276.783 19.2333 277.85 18.2C278.95 17.1667 280.1 16.4333 281.3 16C282.5 15.5333 283.567 15.45 284.5 15.75C284.933 15.8833 285.383 16.0833 285.85 16.35C286.35 16.5833 286.75 16.8 287.05 17C287.383 17.2 287.833 17.5 288.4 17.9C289 18.3 289.433 18.5833 289.7 18.75V4.5Z" fill="white"/>
</svg>
