<svg width="40" height="40" viewBox="0 0 40 40" fill="none" xmlns="http://www.w3.org/2000/svg">
<path fill-rule="evenodd" clip-rule="evenodd" d="M6.16957 0.474783C9.02696 0.242609 13.553 0 20 0C26.447 0 30.973 0.242609 33.8304 0.474783C36.9017 0.724348 39.2765 3.09826 39.5261 6.17043C39.7583 9.02609 40 13.5522 40 20C40 26.4478 39.7583 30.973 39.5261 33.8304C39.2765 36.9017 36.9017 39.2765 33.8304 39.5261C30.973 39.7583 26.447 40 20 40C13.553 40 9.02696 39.7583 6.16957 39.5261C3.09826 39.2765 0.723478 36.9017 0.473913 33.8304C0.243478 30.973 0 26.447 0 20C0 13.553 0.242609 9.02696 0.474783 6.16957C0.724348 3.09826 3.09826 0.723478 6.17043 0.473913M3.63043 11.7391C3.52497 14.4915 3.47424 17.2456 3.47826 20C3.47826 26.36 3.71739 30.7913 3.94087 33.5478C4.05304 34.9217 5.07913 35.9478 6.4513 36.0591C9.2087 36.2826 13.64 36.5217 20 36.5217C26.36 36.5217 30.7913 36.2826 33.5478 36.0591C34.9217 35.947 35.9478 34.9209 36.0591 33.5487C36.2826 30.7913 36.5217 26.36 36.5217 20C36.5217 16.7565 36.46 14.0139 36.3687 11.7391H3.63043ZM5.43478 6.52174C5.43478 5.68174 6.11652 5 6.95652 5H8.69565C9.09924 5 9.4863 5.16033 9.77168 5.44571C10.0571 5.73109 10.2174 6.11815 10.2174 6.52174C10.2174 6.92533 10.0571 7.31239 9.77168 7.59777C9.4863 7.88315 9.09924 8.04348 8.69565 8.04348H6.95652C6.55293 8.04348 6.16587 7.88315 5.88049 7.59777C5.59511 7.31239 5.43478 6.92533 5.43478 6.52174ZM13.913 5C13.5095 5 13.1224 5.16033 12.837 5.44571C12.5516 5.73109 12.3913 6.11815 12.3913 6.52174C12.3913 6.92533 12.5516 7.31239 12.837 7.59777C13.1224 7.88315 13.5095 8.04348 13.913 8.04348H15.6522C16.0558 8.04348 16.4428 7.88315 16.7282 7.59777C17.0136 7.31239 17.1739 6.92533 17.1739 6.52174C17.1739 6.11815 17.0136 5.73109 16.7282 5.44571C16.4428 5.16033 16.0558 5 15.6522 5H13.913Z" fill="#023047"/>
</svg>
