<svg width="40" height="40" viewBox="0 0 40 40" fill="none" xmlns="http://www.w3.org/2000/svg">
<path d="M7.65801 0.139502C7.86144 0.244895 8.03198 0.404171 8.15102 0.599931C8.27006 0.795691 8.333 1.0204 8.33299 1.24952C8.33299 3.19954 9.00462 4.32955 9.77793 5.4479C9.85126 5.55457 9.92792 5.66346 10.0079 5.77457C10.7462 6.82125 11.6662 8.12127 11.6662 9.99963C11.6662 10.7657 11.5153 11.5242 11.2222 12.232C10.929 12.9397 10.4994 13.5828 9.95771 14.1245C9.41605 14.6662 8.77302 15.0958 8.06532 15.389C7.35761 15.6821 6.5991 15.833 5.83309 15.833C5.06708 15.833 4.30857 15.6821 3.60086 15.389C2.89316 15.0958 2.25012 14.6662 1.70847 14.1245C1.16682 13.5828 0.737158 12.9397 0.444017 12.232C0.150877 11.5242 -1.14145e-08 10.7657 0 9.99963C0 8.62794 0.139994 7.13292 1.08162 5.46624C2.00158 3.83788 3.62485 2.15619 6.36473 0.227837C6.55163 0.0962772 6.77101 0.01848 6.99903 0.00290576C7.22705 -0.0126685 7.45497 0.0345765 7.65801 0.139502ZM12.0362 5.78957C13.4858 4.84362 15.1562 4.29018 16.8838 4.18342C18.6115 4.07666 20.3373 4.42022 21.8924 5.1805C23.4475 5.94078 24.7786 7.09174 25.7555 8.52076C26.7324 9.94979 27.3216 11.6079 27.4655 13.333H22.9174C21.2598 13.333 19.6702 13.9915 18.4981 15.1636C17.3261 16.3357 16.6676 17.9255 16.6676 19.5831V24.1331C15.507 24.0362 14.3722 23.7373 13.3144 23.2498C13.2878 24.0648 13.2311 24.9548 13.1478 25.8882C14.2787 26.3067 15.4643 26.5593 16.6676 26.6382V30.4165C16.6676 32.0742 17.3261 33.6639 18.4981 34.836C19.6702 36.0081 21.2598 36.6666 22.9174 36.6666H33.7503C35.4078 36.6666 36.9974 36.0081 38.1695 34.836C39.3415 33.6639 40 32.0742 40 30.4165V19.5831C40 17.9255 39.3415 16.3357 38.1695 15.1636C36.9974 13.9915 35.4078 13.333 33.7503 13.333H29.9737C29.8285 11.1535 29.1146 9.05005 27.9033 7.23234C26.6919 5.41464 25.0255 3.9461 23.0699 2.97307C21.1143 2.00003 18.9379 1.55646 16.7575 1.68656C14.5771 1.81665 12.4689 2.51587 10.6429 3.71455C10.7929 3.97122 10.9629 4.22789 11.1512 4.49956C11.2145 4.594 11.2868 4.69623 11.3679 4.80623C11.5645 5.0829 11.7995 5.40957 12.0362 5.78957ZM33.7519 15.833C34.7464 15.833 35.7002 16.2281 36.4035 16.9314C37.1067 17.6347 37.5018 18.5885 37.5018 19.5831V30.4165C37.5018 31.4111 37.1067 32.365 36.4035 33.0682C35.7002 33.7715 34.7464 34.1666 33.7519 34.1666H22.919C21.9245 34.1666 20.9707 33.7715 20.2675 33.0682C19.5643 32.365 19.1692 31.4111 19.1692 30.4165V26.5565C21.884 26.1901 24.4034 24.9423 26.3403 23.005C28.2772 21.0677 29.5244 18.548 29.8904 15.833H33.7519ZM19.1692 24.0281V19.5831C19.1692 18.5885 19.5643 17.6347 20.2675 16.9314C20.9707 16.2281 21.9245 15.833 22.919 15.833H27.3622C27.0152 17.8804 26.04 19.7691 24.5717 21.2375C23.1034 22.7058 21.2165 23.6811 19.1692 24.0281ZM0 22.1448C0 20.4731 0.133328 18.3981 0.859964 16.688C2.24824 17.7214 3.96983 18.3331 5.83309 18.3331C7.62642 18.3357 9.37237 17.7574 10.8095 16.6847C11.5345 18.3964 11.6662 20.4748 11.6662 22.1448C11.6662 24.9165 11.2262 29.1615 10.4196 32.7282C10.0196 34.5083 9.5096 36.1933 8.8813 37.4616C8.56964 38.095 8.19466 38.69 7.73634 39.145C7.2747 39.6017 6.63639 40 5.83642 40C5.03646 40 4.39982 39.6017 3.93817 39.1433C3.47985 38.69 3.10487 38.095 2.79155 37.4633C2.16324 36.1933 1.65326 34.5083 1.24995 32.7299C0.441648 29.1615 0 24.9165 0 22.1464" fill="#023047"/>
</svg>
