<svg width="221" height="33" viewBox="0 0 221 33" fill="none" xmlns="http://www.w3.org/2000/svg">
<path d="M9.71973 30.6396C9.87998 30.6865 10.0414 30.7305 10.2041 30.7715C10.0414 30.7305 9.87999 30.6865 9.71973 30.6396ZM8.78613 30.3281C8.83272 30.3455 8.87896 30.3639 8.92578 30.3809C8.87895 30.3639 8.83272 30.3455 8.78613 30.3281ZM18.3301 17.8535C18.2811 17.8536 18.1786 17.8731 18.0225 17.9121C17.9443 17.9317 17.8635 17.9546 17.7803 17.9814L17.2666 18.165C17.1834 18.1921 17.1027 18.2158 17.0244 18.2354C16.8682 18.2744 16.751 18.3135 16.6729 18.3525C16.6727 18.4206 16.6335 18.4648 16.5557 18.4844C16.4775 18.5039 16.4326 18.5381 16.4229 18.5869L16.4531 18.7041C16.4237 18.7139 16.3545 18.748 16.2471 18.8066C16.1396 18.8653 16.0226 18.9394 15.8955 19.0273C15.7684 19.1153 15.6554 19.1933 15.5576 19.2617C15.4601 19.33 15.3917 19.3838 15.3525 19.4229C15.1765 19.4229 14.9369 19.4823 14.6338 19.5996C14.3307 19.717 13.9975 19.8631 13.6357 20.0391C13.2741 20.215 12.9173 20.4256 12.5654 20.6699C12.2136 20.9143 11.8811 21.159 11.5684 21.4033C11.2555 21.6478 11.0149 21.8923 10.8486 22.1367C10.6825 22.381 10.585 22.5965 10.5557 22.7822L10.9111 23.1582C11.755 23.4845 12.6264 23.6786 13.5186 23.6787C16.1069 23.6787 18.5258 22.0581 20.5811 20.252C20.579 20.2495 20.5763 20.2476 20.5742 20.2451C20.4667 20.1181 20.3839 19.9806 20.3252 19.834C20.2666 19.6874 20.2325 19.5401 20.2227 19.3936C20.2227 19.296 20.2423 19.1933 20.2812 19.0859C20.3203 18.9785 20.3545 18.8751 20.3838 18.7773L20.0762 18.8516C19.91 18.4702 19.6849 18.2102 19.4014 18.0732C19.1178 17.9363 18.7604 17.8633 18.3301 17.8535ZM0.00488281 17.376C0.0817624 14.0525 1.54103 15.4605 3.87012 17.7803C4.03598 17.7504 4.20619 17.7127 4.37988 17.6631C4.65363 17.5849 4.89818 17.467 5.11328 17.3105L5.02539 17.2373C5.1525 17.2666 5.28012 17.3056 5.40723 17.3545C5.53426 17.4034 5.65617 17.458 5.77344 17.5166C5.89075 17.5752 6.01841 17.6142 6.15527 17.6338C6.29197 17.6533 6.42384 17.6729 6.55078 17.6924L6.78613 17.6631L6.74219 17.5605C6.8789 17.5996 7.02543 17.6485 7.18164 17.707C7.33807 17.7657 7.49006 17.7949 7.63672 17.7949C7.73441 17.7949 7.87607 17.7607 8.06152 17.6924C8.24728 17.6239 8.43338 17.5401 8.61914 17.4424C8.80489 17.3446 8.97151 17.2374 9.11816 17.1201C9.2645 17.003 9.33754 16.8905 9.33789 16.7832L9.30859 16.7383C9.35745 16.6797 9.42188 16.626 9.5 16.5771C9.57803 16.5284 9.65143 16.4794 9.71973 16.4307C9.78802 16.3819 9.8516 16.3281 9.91016 16.2695C9.96876 16.2109 9.99308 16.1416 9.9834 16.0635L9.82227 15.9316L10.1592 15.8877L10.2773 15.4482C10.2577 15.4968 10.2127 15.5166 10.1445 15.5068C10.0764 15.4971 10.0224 15.4774 9.9834 15.4482L10.5117 15.1689L10.1445 14.2305C10.2814 13.7221 10.3164 13.3305 10.248 13.0566C10.1796 12.7829 10.0471 12.5578 9.85156 12.3818C9.65604 12.2059 9.44067 12.0295 9.20605 11.8535C8.97147 11.6775 8.73165 11.4377 8.4873 11.1348L8.53125 10.959L7.56348 9.78516L7.34277 9.75586C7.06907 9.75585 6.76102 9.74611 6.41895 9.72656C6.07684 9.70701 5.7298 9.67289 5.37793 9.62402C5.02589 9.57513 4.6782 9.52643 4.33594 9.47754C3.99386 9.42866 3.68093 9.36529 3.39746 9.28711C3.71032 8.91557 4.0377 8.5629 4.37988 8.23047C4.7221 7.89802 5.08937 7.58047 5.48047 7.27734C5.58791 7.31643 5.71981 7.37016 5.87598 7.43848C6.03236 7.5069 6.18932 7.59465 6.3457 7.70215C6.5021 7.8097 6.6249 7.92759 6.71289 8.05469C6.80061 8.18155 6.85446 8.31359 6.87402 8.4502L6.78613 8.72949C6.96207 9.01278 7.15804 9.1894 7.37305 9.25781C7.58784 9.32609 7.80768 9.3652 8.03223 9.375C8.257 9.38477 8.49202 9.38476 8.73633 9.375C8.98069 9.36523 9.21561 9.40915 9.44043 9.50684L9.67578 9.00781L9.45508 8.15723L9.70508 7.79004L7.16699 6.99805C7.27455 6.72433 7.45093 6.51873 7.69531 6.38184C7.93972 6.245 8.20869 6.17678 8.50195 6.17676V6.03027L7.68066 5.89844C8.59012 5.44859 9.53381 5.1058 10.5117 4.87109C11.4895 4.63641 12.4918 4.51955 13.5186 4.51953C14.3693 4.51953 15.2108 4.6023 16.042 4.76855C16.8731 4.93478 17.6748 5.17444 18.4473 5.4873C19.2198 5.80024 19.9688 6.19174 20.6924 6.66113C21.4157 7.1304 22.0756 7.65858 22.6719 8.24512C22.418 8.24518 22.2228 8.30872 22.0859 8.43555C21.9491 8.56265 21.8214 8.70491 21.7041 8.86133C21.5868 9.01771 21.464 9.16004 21.3369 9.28711C21.2099 9.41382 21.0389 9.48239 20.8242 9.49219L20.5889 9.31641L20.6182 8.99316L20.1348 8.30371L20.5156 7.21875C20.4668 7.18942 20.3936 7.13968 20.2959 7.07129C20.1983 7.00302 20.1152 6.96887 20.0469 6.96875C19.7537 6.96875 19.5285 6.9834 19.3721 7.0127C19.2157 7.04202 19.0782 7.09566 18.9609 7.17383C18.8437 7.25204 18.7413 7.36515 18.6533 7.51172C18.5653 7.65838 18.4279 7.84452 18.2422 8.06934L17.7139 7.6582C17.6161 7.6973 17.4598 7.7608 17.2451 7.84863C17.0301 7.93661 16.8098 8.04481 16.585 8.17188C16.3601 8.29899 16.1691 8.43147 16.0127 8.56836C15.8565 8.70513 15.7735 8.83197 15.7637 8.94922C15.7637 9.09577 15.8173 9.2138 15.9248 9.30176C16.0323 9.38955 16.174 9.46291 16.3496 9.52148C16.5256 9.58013 16.7069 9.62399 16.8926 9.65332C17.0784 9.68266 17.2644 9.72162 17.4502 9.77051C17.636 9.8194 17.7782 9.8681 17.876 9.91699C17.9736 9.96591 18.0322 10.0498 18.0518 10.167L17.2012 10.4453C17.3966 10.6114 17.6064 10.7636 17.8311 10.9004C18.0558 11.0372 18.2909 11.164 18.5352 11.2812L18.4766 11.5312L19.8262 12.0596V12.4697L19.9287 12.5137L19.8555 12.001L19.9141 11.9863C19.9825 11.9863 20.0224 12.0009 20.0322 12.0303C20.0418 12.0594 20.0469 12.094 20.0469 12.1328C20.0468 12.1717 20.037 12.2111 20.0176 12.25C19.9981 12.289 19.9932 12.3184 20.0029 12.3379L20.1934 12.2354L20.1641 12.2939C20.1639 12.3232 20.1493 12.3674 20.1201 12.4258C20.0909 12.4842 20.0516 12.5382 20.0029 12.5869C19.9541 12.6358 19.9141 12.6855 19.8848 12.7344C19.8557 12.7828 19.8359 12.8076 19.8262 12.8076C19.8264 12.8367 19.846 12.8664 19.8848 12.8955C19.9239 12.9248 19.9736 12.9443 20.0322 12.9541C20.0907 12.9639 20.1299 12.9785 20.1494 12.998C20.1686 13.0173 20.1686 13.0222 20.1494 13.0127C20.0125 13.0127 19.9833 13.0224 20.0615 13.042C20.1397 13.0616 20.2619 13.1104 20.4277 13.1885C20.5939 13.2667 20.7459 13.3797 20.8828 13.5264C21.0195 13.6731 21.0976 13.8885 21.1172 14.1719C21.1172 14.3378 21.1123 14.4991 21.1025 14.6553C21.0928 14.8116 21.0977 14.9735 21.1172 15.1396C21.2541 14.7682 21.4597 14.4846 21.7334 14.2891C22.0071 14.0936 22.3395 13.9952 22.7305 13.9951L23.3613 14.0547L23.0537 14.2598C23.2199 14.2402 23.3914 14.2207 23.5674 14.2012C23.7432 14.1817 23.9238 14.1768 24.1094 14.1865C24.2951 14.1963 24.4617 14.2353 24.6084 14.3037C24.755 14.3722 24.9022 14.4745 25.0488 14.6113L25.1367 15.2715C25.1367 15.5841 25.0683 15.8387 24.9316 16.0342C24.7948 16.2296 24.5548 16.3329 24.2129 16.3428C23.9195 16.3428 23.6302 16.2989 23.3467 16.2109C23.0632 16.123 22.7844 16.0196 22.5107 15.9023C22.5987 16.1174 22.6972 16.323 22.8047 16.5186C22.9122 16.714 22.9902 16.9295 23.0391 17.1641L22.8486 17.252C22.614 17.0955 22.3986 17.0713 22.2031 17.1787C22.0076 17.2863 21.8166 17.4431 21.6309 17.6484C21.4451 17.8537 21.2541 18.0642 21.0586 18.2793C20.8631 18.4943 20.6525 18.6503 20.4277 18.748L20.9268 19.0127L22.1006 18.3525C22.0908 18.3722 22.081 18.4162 22.0713 18.4844C22.0616 18.5524 22.0665 18.5671 22.0859 18.5283L22.6133 17.6338C22.8702 17.6258 23.1404 17.59 23.4238 17.5293C25.6493 15.3205 27.0154 14.1267 27.0371 17.5781C26.9915 10.1506 20.9566 4.14356 13.5186 4.14355C6.14823 4.14369 0.157629 10.042 0.00488281 17.376ZM19.2842 16.2549C18.8832 16.2549 18.5161 16.3231 18.1836 16.46C18.3205 16.5088 18.4579 16.5478 18.5947 16.5771C18.7314 16.6064 18.8731 16.626 19.0195 16.6357C19.2151 16.6357 19.3914 16.6163 19.5479 16.5771C19.4991 16.4992 19.4501 16.4503 19.4014 16.4307C19.3526 16.4111 19.3135 16.3523 19.2842 16.2549ZM21.2637 15.5947C21.1367 15.5948 20.9951 15.6143 20.8389 15.6533C20.6824 15.6924 20.5256 15.746 20.3691 15.8145C20.2127 15.8829 20.0558 15.9462 19.8994 16.0049C19.7431 16.0635 19.6016 16.123 19.4746 16.1816L19.709 16.2109C19.7872 16.2207 19.871 16.2256 19.959 16.2256C20.1249 16.2255 20.2764 16.2011 20.4131 16.1523C20.5499 16.1035 20.6776 16.0391 20.7949 15.9609C20.9121 15.8829 21.0293 15.8242 21.1465 15.7852C21.2638 15.746 21.3719 15.7168 21.4697 15.6973C21.5674 15.6973 21.6553 15.7168 21.7334 15.7559C21.8115 15.7949 21.8897 15.8389 21.9678 15.8877C21.9679 15.8487 22.0029 15.8291 22.0713 15.8291C22.0028 15.7607 21.8752 15.7071 21.6895 15.668C21.5037 15.6289 21.3615 15.6045 21.2637 15.5947ZM3.17773 9.56543C3.19728 9.65323 3.22168 9.7168 3.25098 9.75586C3.28022 9.79509 3.29981 9.88385 3.30957 10.0205C3.3094 10.1082 3.27519 10.1916 3.20703 10.2695C3.13861 10.3477 3.04985 10.4257 2.94238 10.5039C2.8349 10.5821 2.7276 10.6416 2.62012 10.6807C2.51258 10.7198 2.41903 10.7539 2.34082 10.7832C2.47767 10.5681 2.6151 10.3625 2.75195 10.167C2.88882 9.97146 3.03109 9.77073 3.17773 9.56543ZM3.35352 9.3457C3.35359 9.4236 3.3682 9.47758 3.39746 9.50684H3.30957C3.27066 9.50684 3.24124 9.51181 3.22168 9.52148L3.35352 9.3457Z" fill="#023047"/>
<path d="M0.96582 15.5811C0.838894 15.5414 0.76628 15.5502 0.724609 15.5664C0.685604 15.5818 0.62617 15.6221 0.561523 15.7461C0.420805 16.0164 0.323256 16.5522 0.323242 17.4824C0.323242 24.7706 6.23155 30.6787 13.5195 30.6787C20.8073 30.6784 26.7148 24.7705 26.7148 17.4824C26.7148 16.5522 26.6173 16.0164 26.4766 15.7461C26.4119 15.6221 26.3525 15.5818 26.3135 15.5664C26.2718 15.5502 26.1992 15.5414 26.0723 15.5811C25.8019 15.6656 25.4285 15.9221 24.9424 16.3477C24.466 16.7648 23.9206 17.3082 23.3066 17.9199C22.0865 19.1355 20.6107 20.607 18.9678 21.7725C17.3264 22.9367 15.4823 23.8211 13.5195 23.8213C11.5566 23.8213 9.71179 22.9368 8.07031 21.7725C6.42737 20.607 4.95161 19.1355 3.73145 17.9199C3.11744 17.3082 2.5721 16.7648 2.0957 16.3477C1.60957 15.9221 1.23619 15.6656 0.96582 15.5811Z" stroke="#023047" stroke-width="0.645923"/>
<path d="M19.9869 26.3548L17.8193 24.7172L17.1602 25.1385L18.9608 26.5247L17.4184 27.7274L17.7921 28.1623L19.9869 26.3548ZM12.6346 24.0989L14.4421 28.8689L15.3254 28.6719L13.5044 23.8203L12.6346 24.0989ZM10.6604 27.7274L9.11794 26.5247L10.9186 25.1385L10.2595 24.7172L8.09191 26.3548L10.2867 28.1623L10.6604 27.7274Z" fill="#023047"/>
<path d="M48.7065 11.2661L47.3546 13.2189C46.9791 13.0937 46.541 12.9435 46.0402 12.7682C45.5395 12.568 45.1515 12.4303 44.8761 12.3551C44.6007 12.255 44.3003 12.1549 43.9748 12.0547C43.6493 11.9546 43.3739 11.892 43.1486 11.8669C42.9483 11.8169 42.7606 11.7918 42.5853 11.7918C40.958 11.8669 39.581 12.9185 38.4544 14.9463C37.3779 16.8991 36.9648 18.8644 37.2151 20.8423C37.4405 22.8201 38.3167 23.9217 39.8439 24.147C41.6214 24.3973 43.9998 23.3709 46.9791 21.0676L47.6926 21.8938C48.1933 22.4446 48.6815 23.0079 49.1572 23.5837L49.8707 24.4099C48.8943 25.1359 48.0306 25.7242 47.2795 26.1749C46.5535 26.6255 45.8024 26.9886 45.0263 27.2639C44.2502 27.5644 43.4866 27.7021 42.7355 27.677C42.0095 27.677 41.2584 27.5268 40.4823 27.2264C38.3292 26.4002 36.3013 24.9481 34.3986 22.8702C33.272 21.6184 32.6461 20.1413 32.5209 18.4388C32.4208 16.7114 32.7212 15.1091 33.4222 13.632C34.1482 12.1549 35.2123 10.9031 36.6143 9.87661C38.0163 8.8251 39.5435 8.29935 41.1958 8.29935C41.9719 8.29935 44.4755 9.28826 48.7065 11.2661ZM65.1985 12.5054C63.5461 11.3788 61.8312 11.554 60.0536 13.0311C58.5765 14.2829 57.5876 15.9478 57.0869 18.0257C56.5361 20.4041 56.9617 22.1942 58.3637 23.3959C58.539 23.5461 58.7267 23.6838 58.927 23.809C59.9284 24.3598 60.9549 24.485 62.0064 24.1845C63.0829 23.8841 64.0093 23.2207 64.7854 22.1942C65.5865 21.1677 66.2124 20.0787 66.6631 18.927C67.1137 17.7504 67.2264 16.5612 67.001 15.3594C66.7757 14.1327 66.1749 13.1813 65.1985 12.5054ZM68.9538 12.8058C69.6799 13.4567 70.2432 14.2453 70.6437 15.1717C71.0443 16.073 71.2696 16.9993 71.3197 17.9506C71.3948 18.902 71.3072 19.8659 71.0568 20.8423C70.8315 21.8187 70.481 22.7325 70.0053 23.5837C69.5297 24.4349 68.9288 25.1985 68.2028 25.8745C67.5018 26.5254 66.7256 27.0136 65.8744 27.3391C65.0232 27.6896 64.0719 27.8272 63.0204 27.7521C61.9939 27.677 60.9424 27.3516 59.8658 26.7757C58.4638 26.0247 57.0869 25.0733 55.7349 23.9217C54.6584 22.9953 53.8573 21.9564 53.3315 20.8047C52.8058 19.628 52.5554 18.4889 52.5804 17.3873C52.6305 16.2858 52.8433 15.1842 53.2189 14.0826C53.6194 12.981 54.1827 12.0297 54.9088 11.2285C55.6598 10.4274 56.4735 9.75143 57.3498 9.20064C58.226 8.62482 59.1648 8.32439 60.1663 8.29935C61.1927 8.27432 62.1817 8.48712 63.133 8.93776C65.5615 10.2146 67.5018 11.5039 68.9538 12.8058ZM80.7398 24.7478C82.7176 25.7493 85.1085 25.2611 87.9126 23.2833V12.7307C87.1865 12.3051 86.1726 12.0172 84.8707 11.8669C83.8442 11.7668 82.8428 12.2926 81.8664 13.4442C80.89 14.5708 80.1515 15.8852 79.6508 17.3873C79.15 18.8895 78.9623 20.3791 79.0874 21.8562C79.2377 23.3083 79.7884 24.2722 80.7398 24.7478ZM87.9126 -4.21729e-06L92.6068 1.0515C92.757 17.9506 92.757 26.4753 92.6068 26.6255C92.4816 26.6506 91.8307 26.7883 90.654 27.0386C89.5023 27.314 88.7638 27.4767 88.4383 27.5268C88.1128 27.5769 87.4369 27.652 86.4104 27.7521C85.409 27.8523 84.6078 27.8523 84.007 27.7521C83.4312 27.652 82.7051 27.4767 81.8289 27.2264C80.9526 27.0011 80.1139 26.6631 79.3128 26.2124C77.8857 25.4363 76.7842 24.485 76.008 23.3584C75.2319 22.2318 74.8188 21.0801 74.7688 19.9034C74.7187 18.7267 74.8564 17.5375 75.1819 16.3358C75.5073 15.1091 76.0206 13.995 76.7216 12.9936C77.4476 11.9671 78.2112 11.0658 79.0123 10.2897C79.8385 9.51359 80.7023 8.9628 81.6035 8.63734C82.5048 8.28683 83.306 8.22425 84.007 8.44957C84.3324 8.54971 84.6704 8.69992 85.0209 8.90021C85.3965 9.07546 85.6969 9.23819 85.9222 9.38841C86.1726 9.53862 86.5106 9.76394 86.9362 10.0644C87.3868 10.3648 87.7123 10.5776 87.9126 10.7028V-4.21729e-06ZM101.278 19.1899L109.803 13.3691C108.001 12.2174 106.461 11.7918 105.184 12.0923C103.932 12.3927 102.968 13.1813 102.292 14.4582C101.616 15.7099 101.278 17.2872 101.278 19.1899ZM102.142 22.7951C102.843 23.6463 103.632 24.172 104.508 24.3723C105.384 24.5726 106.298 24.4599 107.249 24.0343C108.226 23.5837 109.04 23.1456 109.69 22.72C110.341 22.2693 111.105 21.681 111.981 20.9549L112.732 21.706C113.208 22.2318 113.684 22.7575 114.159 23.2833L114.91 24.0343C112.732 25.6366 110.892 26.7006 109.39 27.2264C107.888 27.7772 106.398 27.7772 104.921 27.2264C102.768 26.4002 100.74 24.9481 98.8374 22.8702C97.7108 21.6184 97.0599 20.1413 96.8847 18.4388C96.7094 16.7114 96.9222 15.1091 97.5231 13.632C98.149 12.1549 99.1003 10.9031 100.377 9.87661C101.679 8.8251 103.094 8.29935 104.621 8.29935C105.622 8.29935 107.099 8.95028 109.052 10.2521C111.03 11.529 112.67 12.7808 113.972 14.0075C113.947 14.0826 112.945 14.8587 110.967 16.3358C109.014 17.7879 107.049 19.2275 105.071 20.6545L102.142 22.7951ZM120.834 9.76394L125.528 21.1427L129.847 8.71244L134.541 9.76394L139.235 21.1427L143.554 8.71244L148.248 9.76394L142.014 27.7521H141.977L137.282 26.7006L132.588 15.397L128.307 27.7521H128.27L123.613 26.7006H123.575L116.14 8.71244L120.834 9.76394ZM162.787 12.5054C161.134 11.3788 159.419 11.554 157.642 13.0311C156.165 14.2829 155.176 15.9478 154.675 18.0257C154.124 20.4041 154.55 22.1942 155.952 23.3959C156.127 23.5461 156.315 23.6838 156.515 23.809C157.517 24.3598 158.543 24.485 159.595 24.1845C160.671 23.8841 161.597 23.2207 162.374 22.1942C163.175 21.1677 163.801 20.0787 164.251 18.927C164.702 17.7504 164.815 16.5612 164.589 15.3594C164.364 14.1327 163.763 13.1813 162.787 12.5054ZM166.542 12.8058C167.268 13.4567 167.831 14.2453 168.232 15.1717C168.632 16.073 168.858 16.9993 168.908 17.9506C168.983 18.902 168.895 19.8659 168.645 20.8423C168.42 21.8187 168.069 22.7325 167.593 23.5837C167.118 24.4349 166.517 25.1985 165.791 25.8745C165.09 26.5254 164.314 27.0136 163.463 27.3391C162.611 27.6896 161.66 27.8272 160.608 27.7521C159.582 27.677 158.531 27.3516 157.454 26.7757C156.052 26.0247 154.675 25.0733 153.323 23.9217C152.247 22.9953 151.445 21.9564 150.92 20.8047C150.394 19.628 150.144 18.4889 150.169 17.3873C150.219 16.2858 150.431 15.1842 150.807 14.0826C151.208 12.981 151.771 12.0297 152.497 11.2285C153.248 10.4274 154.062 9.75143 154.938 9.20064C155.814 8.62482 156.753 8.32439 157.754 8.29935C158.781 8.27432 159.77 8.48712 160.721 8.93776C163.15 10.2146 165.09 11.5039 166.542 12.8058ZM177.727 9.76394V12.5429C179.555 9.6638 181.107 8.22424 182.384 8.22424C183.01 8.22424 184.061 8.54971 185.538 9.20064C187.015 9.82653 188.255 10.4775 189.256 11.1534L186.665 14.9088C185.113 13.7571 183.761 13.1313 182.609 13.0311C181.482 12.9059 180.581 13.1313 179.905 13.7071C179.229 14.2579 178.503 15.1592 177.727 16.4109V27.7521L173.033 26.7006V8.71244L177.727 9.76394ZM196.21 1.0515V27.7521L191.515 26.7006V-4.21729e-06L196.21 1.0515ZM205.906 24.7478C207.884 25.7493 210.275 25.2611 213.079 23.2833V12.7307C212.353 12.3051 211.339 12.0172 210.037 11.8669C209.011 11.7668 208.009 12.2926 207.033 13.4442C206.057 14.5708 205.318 15.8852 204.817 17.3873C204.317 18.8895 204.129 20.3791 204.254 21.8562C204.404 23.3083 204.955 24.2722 205.906 24.7478ZM213.079 -4.21729e-06L217.773 1.0515C217.924 17.9506 217.924 26.4753 217.773 26.6255C217.648 26.6506 216.997 26.7883 215.821 27.0386C214.669 27.314 213.93 27.4767 213.605 27.5268C213.279 27.5769 212.603 27.652 211.577 27.7521C210.576 27.8523 209.774 27.8523 209.174 27.7521C208.598 27.652 207.872 27.4767 206.995 27.2264C206.119 27.0011 205.281 26.6631 204.479 26.2124C203.052 25.4363 201.951 24.485 201.175 23.3584C200.399 22.2318 199.985 21.0801 199.935 19.9034C199.885 18.7267 200.023 17.5375 200.348 16.3358C200.674 15.1091 201.187 13.995 201.888 12.9936C202.614 11.9671 203.378 11.0658 204.179 10.2897C205.005 9.51359 205.869 8.9628 206.77 8.63734C207.671 8.28683 208.473 8.22425 209.174 8.44957C209.499 8.54971 209.837 8.69992 210.188 8.90021C210.563 9.07546 210.863 9.23819 211.089 9.38841C211.339 9.53862 211.677 9.76394 212.103 10.0644C212.553 10.3648 212.879 10.5776 213.079 10.7028V-4.21729e-06Z" fill="#023047"/>
</svg>
