<svg width="40" height="40" viewBox="0 0 40 40" fill="none" xmlns="http://www.w3.org/2000/svg">
<path d="M0 6.15404C0 4.52189 0.602039 2.95658 1.67368 1.80248C2.74531 0.64837 4.19876 0 5.71429 0H34.2857C35.8012 0 37.2547 0.64837 38.3263 1.80248C39.398 2.95658 40 4.52189 40 6.15404V24.6162C40 26.2483 39.398 27.8136 38.3263 28.9677C37.2547 30.1219 35.8012 30.7702 34.2857 30.7702H17.1429V29.681C17.646 29.0676 18.091 28.4017 18.4714 27.6932H34.2857C35.0435 27.6932 35.7702 27.369 36.306 26.792C36.8418 26.2149 37.1429 25.4323 37.1429 24.6162V6.15404C37.1429 5.33797 36.8418 4.55531 36.306 3.97826C35.7702 3.40121 35.0435 3.07702 34.2857 3.07702H5.71429C4.95652 3.07702 4.2298 3.40121 3.69398 3.97826C3.15816 4.55531 2.85714 5.33797 2.85714 6.15404V10.8773C1.78399 11.5459 0.818999 12.398 0 13.4004V6.15404ZM16.1314 12.3081C14.3167 10.5842 12.0408 9.5251 9.63143 9.28338C9.75165 9.24873 9.87555 9.23114 10 9.23107H30C30.3789 9.23107 30.7422 9.39316 31.0102 9.68169C31.2781 9.97021 31.4286 10.3615 31.4286 10.7696C31.4286 11.1776 31.2781 11.5689 31.0102 11.8575C30.7422 12.146 30.3789 12.3081 30 12.3081H16.1314ZM21.4286 18.4621C21.0497 18.4621 20.6863 18.6242 20.4184 18.9128C20.1505 19.2013 20 19.5926 20 20.0006C20 20.4087 20.1505 20.8 20.4184 21.0885C20.6863 21.3771 21.0497 21.5392 21.4286 21.5392H30C30.3789 21.5392 30.7422 21.3771 31.0102 21.0885C31.2781 20.8 31.4286 20.4087 31.4286 20.0006C31.4286 19.5926 31.2781 19.2013 31.0102 18.9128C30.7422 18.6242 30.3789 18.4621 30 18.4621H21.4286ZM17.1429 21.5392C17.1429 22.7514 16.9212 23.9518 16.4904 25.0717C16.0596 26.1917 15.4283 27.2093 14.6323 28.0665C13.8364 28.9237 12.8915 29.6036 11.8516 30.0676C10.8116 30.5315 9.69705 30.7702 8.57143 30.7702C7.44581 30.7702 6.33122 30.5315 5.29129 30.0676C4.25135 29.6036 3.30644 28.9237 2.51051 28.0665C1.71458 27.2093 1.08322 26.1917 0.652461 25.0717C0.221706 23.9518 -1.6773e-08 22.7514 0 21.5392C3.38746e-08 19.0909 0.903059 16.743 2.51051 15.0118C4.11797 13.2806 6.29814 12.3081 8.57143 12.3081C10.8447 12.3081 13.0249 13.2806 14.6323 15.0118C16.2398 16.743 17.1429 19.0909 17.1429 21.5392ZM2.85714 32.1333V38.4628C2.85704 38.7413 2.92715 39.0146 3.05999 39.2536C3.19283 39.4926 3.38342 39.6883 3.61143 39.8197C3.83961 39.9504 4.09644 40.012 4.35455 39.9979C4.61267 39.9839 4.8624 39.8946 5.07714 39.7397L8.57143 37.232L12.0657 39.7428C12.2268 39.8581 12.4079 39.937 12.5981 39.9746C12.7883 40.0123 12.9836 40.008 13.1722 39.962C13.3608 39.9159 13.5388 39.8291 13.6953 39.7068C13.8518 39.5845 13.9837 39.4293 14.0829 39.2505C14.2157 39.0115 14.2858 38.7382 14.2857 38.4597V32.1333C12.5561 33.2407 10.5836 33.8313 8.57143 33.8442C6.5593 33.8313 4.58676 33.2407 2.85714 32.1333Z" fill="#023047"/>
</svg>
